<?xml version="1.0" standalone="no"?>
<!DOCTYPE svg PUBLIC "-//W3C//DTD SVG 20010904//EN"
 "http://www.w3.org/TR/2001/REC-SVG-20010904/DTD/svg10.dtd">
<svg version="1.0" xmlns="http://www.w3.org/2000/svg"
 width="240.000000pt" height="240.000000pt" viewBox="0 0 240.000000 240.000000"
 preserveAspectRatio="xMidYMid meet">

<g transform="translate(0.000000,240.000000) scale(0.100000,-0.100000)"
fill="#000000" stroke="none">
<path d="M0 1200 l0 -1200 1195 0 1195 0 0 1200 0 1200 -1195 0 -1195 0 0
-1200z m1365 295 c82 -104 139 -183 129 -175 -15 12 -46 15 -139 15 l-120 0
-6 -35 c-3 -22 -8 15 -13 95 -5 72 -12 150 -16 175 -7 42 -8 40 -10 -30 -2
-85 -16 -254 -18 -227 -2 13 -12 17 -49 18 -130 4 -206 -1 -221 -13 -21 -16
-31 -29 147 200 101 129 146 180 156 175 7 -5 79 -93 160 -198z m-1090 -11
c63 -37 113 -70 110 -74 -4 -7 41 -98 54 -110 3 -3 7 -12 9 -20 2 -8 8 -16 13
-18 5 -2 9 -9 9 -16 0 -7 9 -22 20 -34 12 -12 18 -22 15 -22 -6 0 43 -90 55
-100 3 -3 19 -32 36 -65 57 -109 148 -270 156 -276 9 -6 -171 -39 -210 -39
-16 0 -56 79 -211 410 -105 225 -191 414 -191 420 0 19 20 10 135 -56z m1977
45 c-3 -13 -372 -809 -379 -818 -2 -3 -57 4 -122 14 -116 18 -118 19 -101 37
9 10 26 35 36 56 11 20 43 76 72 124 28 48 52 91 52 96 0 5 9 20 20 34 10 14
34 54 53 89 39 74 81 149 113 200 13 21 19 40 14 45 -10 10 219 146 235 140 6
-2 9 -10 7 -17z"/>
</g>
</svg>
