<?xml version="1.0" standalone="no"?>
<!DOCTYPE svg PUBLIC "-//W3C//DTD SVG 20010904//EN"
 "http://www.w3.org/TR/2001/REC-SVG-20010904/DTD/svg10.dtd">
<svg version="1.0" xmlns="http://www.w3.org/2000/svg"
 width="225.000000pt" height="225.000000pt" viewBox="0 0 225.000000 225.000000"
 preserveAspectRatio="xMidYMid meet">

<g transform="translate(0.000000,225.000000) scale(0.100000,-0.100000)"
fill="#000000" stroke="none">
<path d="M985 2081 c-209 -35 -395 -129 -541 -275 -121 -122 -209 -275 -256
-446 -32 -121 -32 -346 1 -470 57 -214 183 -405 351 -532 85 -65 244 -142 350
-170 122 -32 348 -32 470 1 287 76 515 267 640 535 64 136 84 228 84 396 0
117 -4 162 -22 234 -43 169 -132 328 -256 452 -123 123 -283 214 -447 254 -93
23 -292 34 -374 21z m275 -71 c326 -52 606 -287 709 -596 68 -204 68 -374 0
-578 -92 -276 -311 -483 -605 -572 -78 -24 -106 -27 -234 -28 -156 -1 -227 13
-363 70 -246 104 -439 333 -513 610 -26 97 -26 321 0 418 44 167 123 305 240
422 139 140 280 210 511 258 41 8 192 6 255 -4z"/>
<path d="M1064 1580 c-109 -23 -204 -99 -229 -183 -8 -28 -15 -54 -15 -59 0
-4 47 -8 105 -8 86 0 105 3 105 15 0 8 13 29 28 46 21 24 39 32 74 36 98 11
168 -41 168 -126 l0 -48 -132 -6 c-153 -6 -215 -22 -280 -72 -63 -47 -88 -103
-88 -191 0 -58 5 -77 29 -120 75 -131 318 -166 435 -63 l35 30 11 -40 11 -41
109 0 c61 0 110 3 110 8 0 4 -7 29 -15 56 -11 38 -15 105 -15 286 0 284 -7
320 -79 391 -60 60 -138 90 -246 95 -44 2 -99 -1 -121 -6z m226 -523 c0 -67
-2 -76 -27 -100 -65 -62 -178 -77 -232 -31 -27 22 -31 32 -31 74 0 90 62 129
208 130 l82 0 0 -73z"/>
</g>
</svg>
